<?xml version="1.0" standalone="no"?>
<!DOCTYPE svg PUBLIC "-//W3C//DTD SVG 20010904//EN"
 "http://www.w3.org/TR/2001/REC-SVG-20010904/DTD/svg10.dtd">
<svg version="1.0" xmlns="http://www.w3.org/2000/svg"
 width="225.000000pt" height="225.000000pt" viewBox="0 0 225.000000 225.000000"
 preserveAspectRatio="xMidYMid meet">

<g transform="translate(0.000000,225.000000) scale(0.100000,-0.100000)"
fill="#000000" stroke="none">
<path d="M2100 2231 c-174 -73 -2059 -936 -2073 -950 -10 -9 -20 -33 -23 -52
-10 -61 12 -77 360 -251 176 -88 322 -161 324 -163 1 -1 -5 -169 -15 -372 -16
-353 -16 -372 1 -397 20 -31 61 -49 93 -41 12 3 103 66 202 140 l180 134 97
-130 c57 -77 108 -135 122 -140 34 -13 75 -3 99 24 21 23 783 2093 783 2127 0
26 -49 78 -80 84 -14 3 -45 -3 -70 -13z m-831 -827 l-446 -446 -256 129 -257
128 697 317 c384 175 700 318 703 318 3 0 -196 -201 -441 -446z m390 -339
c-143 -391 -265 -725 -273 -744 l-13 -33 -201 270 c-111 149 -202 275 -202
279 0 7 943 942 947 939 1 -1 -115 -321 -258 -711z m-629 -634 c0 -5 -26 -28
-57 -52 -32 -23 -73 -54 -91 -67 l-32 -25 5 129 c3 71 8 153 11 182 l6 53 79
-105 c43 -58 79 -110 79 -115z"/>
</g>
</svg>
