<?xml version="1.0" standalone="no"?>
<!DOCTYPE svg PUBLIC "-//W3C//DTD SVG 20010904//EN"
 "http://www.w3.org/TR/2001/REC-SVG-20010904/DTD/svg10.dtd">
<svg version="1.0" xmlns="http://www.w3.org/2000/svg"
 width="219.000000pt" height="230.000000pt" viewBox="0 0 219.000000 230.000000"
 preserveAspectRatio="xMidYMid meet">

<g transform="translate(0.000000,230.000000) scale(0.100000,-0.100000)"
fill="#000000" stroke="none">
<path d="M965 2189 c-340 -46 -630 -256 -780 -564 -84 -171 -100 -244 -99
-455 0 -160 3 -183 27 -265 114 -381 402 -650 783 -730 105 -22 293 -22 398 0
313 66 567 261 706 540 27 55 62 141 77 190 24 82 27 105 27 265 1 207 -15
282 -93 445 -137 287 -400 497 -703 559 -99 20 -255 27 -343 15z m340 -143
c267 -72 472 -239 590 -481 63 -128 89 -241 89 -390 0 -405 -254 -741 -649
-861 -81 -25 -105 -27 -240 -27 -135 0 -159 2 -240 27 -396 120 -648 456 -648
861 0 434 292 789 723 881 84 17 293 12 375 -10z"/>
<path d="M655 1732 c-16 -11 -52 -43 -80 -71 l-50 -52 2 -92 c9 -383 280 -741
657 -866 101 -33 274 -59 320 -47 16 4 55 32 87 63 70 66 87 108 70 170 -17
63 -61 95 -175 127 -121 34 -157 30 -220 -26 -45 -38 -47 -39 -83 -28 -143 46
-288 186 -344 334 l-22 56 36 39 c59 65 65 103 34 218 -27 101 -45 133 -89
166 -38 28 -106 33 -143 9z"/>
</g>
</svg>
